<svg width="207" height="219" viewBox="0 0 207 219" fill="none" xmlns="http://www.w3.org/2000/svg">
<g clip-path="url(#clip0_1284_572)">
<path d="M116.254 90.1984L103.072 58.1603L89.3043 91.62C88.0984 90.7224 87.2345 89.391 86.5333 88.0259C85.6414 86.2832 84.2721 84.8653 82.4847 84.0089C77.4712 81.6069 71.0654 84.5314 68.1808 90.5476C65.2963 96.5638 67.0235 103.385 72.0419 105.789C73.8293 106.646 75.7927 106.824 77.7103 106.428C79.5218 106.056 81.443 105.899 83.1248 106.638L74.8919 126.647H95.0922C95.0118 128.457 94.0495 130.098 92.9446 131.553C91.758 133.11 91.0707 134.957 91.0707 136.938C91.0707 142.501 96.4775 147.006 103.152 147.006C109.825 147.006 115.232 142.496 115.232 136.938C115.232 134.957 114.545 133.11 113.358 131.553C112.253 130.098 111.291 128.457 111.211 126.647H131.251L122.43 105.208C120.773 106.049 119.679 107.66 118.826 109.32C117.934 111.063 116.565 112.481 114.778 113.337C109.764 115.739 103.358 112.815 100.474 106.798C97.5891 100.782 99.3164 93.9611 104.335 91.5568C106.122 90.7004 108.085 90.5216 110.003 90.9182C111.873 91.3021 113.859 91.4573 115.579 90.6335C115.824 90.5177 116.05 90.3717 116.254 90.1984Z" fill="url(#paint0_linear_1284_572)"/>
<path d="M0 36.3688L7.36753 153.221L38.3141 86.6677C38.1437 86.5103 37.9557 86.3725 37.7518 86.2562C36.1004 85.3031 34.1078 85.3058 32.2141 85.5454C30.2717 85.794 28.3278 85.4654 26.6113 84.4747C21.7919 81.6933 20.5923 74.76 23.9293 68.9823C27.2663 63.2046 33.8773 60.7791 38.6921 63.5579C40.4086 64.5486 41.6653 66.0671 42.421 67.8729C43.0625 69.3993 43.8956 70.9009 45.1836 71.8942L78.6136 0L0 36.3688Z" fill="url(#paint1_linear_1284_572)"/>
<path d="M95.0975 161.936C95.0975 163.842 94.0988 165.565 92.9444 167.085C91.7578 168.642 91.0705 170.489 91.0705 172.471C91.0705 178.034 96.4774 182.539 103.151 182.539C109.825 182.539 115.232 178.028 115.232 172.471C115.232 170.489 114.545 168.642 113.358 167.085C112.204 165.565 111.205 163.842 111.205 161.936C111.204 161.607 111.249 161.28 111.34 160.966H145.911L156.848 187.465L103.072 218.14L49.2947 187.465L60.2323 160.966H94.9457C95.0477 161.279 95.0991 161.604 95.0975 161.936Z" fill="url(#paint2_linear_1284_572)"/>
<path d="M198.7 153.221L206.143 36.3688L127.53 0L161.102 72.2778C161.055 72.3409 161.005 72.4022 160.952 72.4617C160.673 72.7796 160.336 73.0347 159.953 73.2157C158.233 74.0396 156.247 73.8843 154.377 73.5005C152.459 73.1039 150.496 73.2827 148.709 74.1391C143.69 76.5434 141.963 83.3645 144.848 89.3807C147.732 95.3969 154.138 98.3214 159.151 95.9194C160.939 95.063 162.308 93.6451 163.2 91.9024C164.072 90.205 165.195 88.5598 166.915 87.7359C167.295 87.5512 167.707 87.4384 168.128 87.4029L198.7 153.221Z" fill="url(#paint3_linear_1284_572)"/>
<path d="M116.254 90.1984L103.072 58.1603L89.3043 91.62C88.0984 90.7224 87.2345 89.391 86.5333 88.0259C85.6414 86.2832 84.2721 84.8653 82.4847 84.0089C77.4712 81.6069 71.0654 84.5314 68.1808 90.5476C65.2963 96.5638 67.0235 103.385 72.0419 105.789C73.8293 106.646 75.7927 106.824 77.7103 106.428C79.5218 106.056 81.443 105.899 83.1248 106.638L74.8919 126.647H95.0922C95.0118 128.457 94.0495 130.098 92.9446 131.553C91.758 133.11 91.0707 134.957 91.0707 136.938C91.0707 142.501 96.4775 147.006 103.152 147.006C109.825 147.006 115.232 142.496 115.232 136.938C115.232 134.957 114.545 133.11 113.358 131.553C112.253 130.098 111.291 128.457 111.211 126.647H131.251L122.43 105.208C120.773 106.049 119.679 107.66 118.826 109.32C117.934 111.063 116.565 112.481 114.778 113.337C109.764 115.739 103.358 112.815 100.474 106.798C97.5891 100.782 99.3164 93.9611 104.335 91.5568C106.122 90.7004 108.085 90.5216 110.003 90.9182C111.873 91.3021 113.859 91.4573 115.579 90.6335C115.824 90.5177 116.05 90.3717 116.254 90.1984Z" fill="url(#paint4_linear_1284_572)"/>
<path d="M0 36.3688L7.36753 153.221L38.3141 86.6677C38.1437 86.5103 37.9557 86.3725 37.7518 86.2562C36.1004 85.3031 34.1078 85.3058 32.2141 85.5454C30.2717 85.794 28.3278 85.4654 26.6113 84.4747C21.7919 81.6933 20.5923 74.76 23.9293 68.9823C27.2663 63.2046 33.8773 60.7791 38.6921 63.5579C40.4086 64.5486 41.6653 66.0671 42.421 67.8729C43.0625 69.3993 43.8956 70.9009 45.1836 71.8942L78.6136 0L0 36.3688Z" fill="url(#paint5_linear_1284_572)"/>
<path d="M95.0975 161.936C95.0975 163.842 94.0988 165.565 92.9444 167.085C91.7578 168.642 91.0705 170.489 91.0705 172.471C91.0705 178.034 96.4774 182.539 103.151 182.539C109.825 182.539 115.232 178.028 115.232 172.471C115.232 170.489 114.545 168.642 113.358 167.085C112.204 165.565 111.205 163.842 111.205 161.936C111.204 161.607 111.249 161.28 111.34 160.966H145.911L156.848 187.465L103.072 218.14L49.2947 187.465L60.2323 160.966H94.9457C95.0477 161.279 95.0991 161.604 95.0975 161.936Z" fill="url(#paint6_linear_1284_572)"/>
<path d="M198.7 153.221L206.143 36.3688L127.53 0L161.102 72.2778C161.055 72.3409 161.005 72.4022 160.952 72.4617C160.673 72.7796 160.336 73.0347 159.953 73.2157C158.233 74.0396 156.247 73.8843 154.377 73.5005C152.459 73.1039 150.496 73.2827 148.709 74.1391C143.69 76.5434 141.963 83.3645 144.848 89.3807C147.732 95.3969 154.138 98.3214 159.151 95.9194C160.939 95.063 162.308 93.6451 163.2 91.9024C164.072 90.205 165.195 88.5598 166.915 87.7359C167.295 87.5512 167.707 87.4384 168.128 87.4029L198.7 153.221Z" fill="url(#paint7_linear_1284_572)"/>
</g>
<defs>
<linearGradient id="paint0_linear_1284_572" x1="45.4927" y1="198.353" x2="209.607" y2="120.339" gradientUnits="userSpaceOnUse">
<stop stop-color="#E40035"/>
<stop offset="0.24" stop-color="#F60A48"/>
<stop offset="0.352" stop-color="#F20755"/>
<stop offset="0.494" stop-color="#DC087D"/>
<stop offset="0.745" stop-color="#9717E7"/>
<stop offset="1" stop-color="#6C00F5"/>
</linearGradient>
<linearGradient id="paint1_linear_1284_572" x1="45.4927" y1="198.353" x2="209.607" y2="120.339" gradientUnits="userSpaceOnUse">
<stop stop-color="#E40035"/>
<stop offset="0.24" stop-color="#F60A48"/>
<stop offset="0.352" stop-color="#F20755"/>
<stop offset="0.494" stop-color="#DC087D"/>
<stop offset="0.745" stop-color="#9717E7"/>
<stop offset="1" stop-color="#6C00F5"/>
</linearGradient>
<linearGradient id="paint2_linear_1284_572" x1="45.4927" y1="198.353" x2="209.607" y2="120.339" gradientUnits="userSpaceOnUse">
<stop stop-color="#E40035"/>
<stop offset="0.24" stop-color="#F60A48"/>
<stop offset="0.352" stop-color="#F20755"/>
<stop offset="0.494" stop-color="#DC087D"/>
<stop offset="0.745" stop-color="#9717E7"/>
<stop offset="1" stop-color="#6C00F5"/>
</linearGradient>
<linearGradient id="paint3_linear_1284_572" x1="45.4927" y1="198.353" x2="209.607" y2="120.339" gradientUnits="userSpaceOnUse">
<stop stop-color="#E40035"/>
<stop offset="0.24" stop-color="#F60A48"/>
<stop offset="0.352" stop-color="#F20755"/>
<stop offset="0.494" stop-color="#DC087D"/>
<stop offset="0.745" stop-color="#9717E7"/>
<stop offset="1" stop-color="#6C00F5"/>
</linearGradient>
<linearGradient id="paint4_linear_1284_572" x1="38.0815" y1="26.3023" x2="145.458" y2="148.826" gradientUnits="userSpaceOnUse">
<stop stop-color="#FF31D9"/>
<stop offset="1" stop-color="#FF5BE1" stop-opacity="0"/>
</linearGradient>
<linearGradient id="paint5_linear_1284_572" x1="38.0815" y1="26.3023" x2="145.458" y2="148.826" gradientUnits="userSpaceOnUse">
<stop stop-color="#FF31D9"/>
<stop offset="1" stop-color="#FF5BE1" stop-opacity="0"/>
</linearGradient>
<linearGradient id="paint6_linear_1284_572" x1="38.0815" y1="26.3023" x2="145.458" y2="148.826" gradientUnits="userSpaceOnUse">
<stop stop-color="#FF31D9"/>
<stop offset="1" stop-color="#FF5BE1" stop-opacity="0"/>
</linearGradient>
<linearGradient id="paint7_linear_1284_572" x1="38.0815" y1="26.3023" x2="145.458" y2="148.826" gradientUnits="userSpaceOnUse">
<stop stop-color="#FF31D9"/>
<stop offset="1" stop-color="#FF5BE1" stop-opacity="0"/>
</linearGradient>
<clipPath id="clip0_1284_572">
<rect width="207" height="219" fill="white"/>
</clipPath>
</defs>
</svg>
