<svg width="814" height="219" viewBox="0 0 814 219" fill="none" xmlns="http://www.w3.org/2000/svg">
<path d="M116.254 90.1984L103.072 58.1603L89.3043 91.62C88.0984 90.7224 87.2345 89.391 86.5333 88.0259C85.6414 86.2832 84.2721 84.8653 82.4847 84.0089C77.4712 81.6069 71.0654 84.5314 68.1808 90.5476C65.2963 96.5638 67.0235 103.385 72.0419 105.789C73.8293 106.646 75.7927 106.824 77.7103 106.428C79.5218 106.056 81.443 105.899 83.1247 106.638L74.8919 126.647H95.0922C95.0118 128.457 94.0495 130.098 92.9446 131.553C91.758 133.11 91.0707 134.957 91.0707 136.938C91.0707 142.501 96.4775 147.006 103.152 147.006C109.825 147.006 115.232 142.496 115.232 136.938C115.232 134.957 114.545 133.11 113.358 131.553C112.253 130.098 111.291 128.457 111.211 126.647H131.251L122.43 105.208C120.773 106.049 119.679 107.66 118.826 109.32C117.934 111.063 116.565 112.481 114.778 113.337C109.764 115.739 103.358 112.815 100.474 106.798C97.5891 100.782 99.3164 93.9611 104.335 91.5568C106.122 90.7004 108.085 90.5216 110.003 90.9182C111.873 91.3021 113.859 91.4573 115.579 90.6335C115.824 90.5177 116.05 90.3717 116.254 90.1984Z" fill="white"/>
<path d="M0 36.3688L7.36753 153.221L38.3141 86.6677C38.1437 86.5103 37.9556 86.3725 37.7518 86.2562C36.1004 85.3031 34.1078 85.3058 32.2141 85.5454C30.2717 85.794 28.3278 85.4654 26.6113 84.4747C21.7919 81.6933 20.5923 74.76 23.9293 68.9823C27.2663 63.2046 33.8773 60.7791 38.6921 63.5579C40.4086 64.5486 41.6653 66.0671 42.421 67.8729C43.0625 69.3993 43.8956 70.9009 45.1836 71.8942L78.6136 0L0 36.3688Z" fill="white"/>
<path d="M95.0975 161.936C95.0975 163.842 94.0988 165.565 92.9444 167.085C91.7578 168.642 91.0705 170.489 91.0705 172.471C91.0705 178.034 96.4774 182.539 103.151 182.539C109.825 182.539 115.232 178.028 115.232 172.471C115.232 170.489 114.545 168.642 113.358 167.085C112.204 165.565 111.205 163.842 111.205 161.936C111.204 161.607 111.249 161.28 111.34 160.966H145.911L156.848 187.465L103.072 218.14L49.2947 187.465L60.2323 160.966H94.9457C95.0477 161.279 95.0991 161.604 95.0975 161.936Z" fill="white"/>
<path d="M198.7 153.221L206.143 36.3688L127.53 0L161.102 72.2778C161.055 72.3408 161.005 72.4022 160.952 72.4617C160.673 72.7796 160.336 73.0347 159.953 73.2157C158.233 74.0396 156.247 73.8843 154.377 73.5005C152.459 73.1039 150.496 73.2827 148.709 74.1391C143.69 76.5434 141.963 83.3645 144.848 89.3807C147.732 95.3969 154.138 98.3214 159.151 95.9194C160.939 95.063 162.308 93.6451 163.2 91.9024C164.072 90.205 165.195 88.5598 166.915 87.7359C167.295 87.5512 167.707 87.4384 168.128 87.4029L198.7 153.221Z" fill="white"/>
<path d="M768.688 103.138V144.047H752.233V74.229H767.961V86.0927H768.779C770.385 82.1836 772.945 79.0775 776.461 76.7745C780.006 74.4714 784.385 73.3199 789.597 73.3199C794.415 73.3199 798.612 74.3502 802.188 76.4108C805.794 78.4714 808.582 81.4563 810.551 85.3654C812.551 89.2745 813.536 94.0169 813.506 99.5927V144.047H797.051V102.138C797.051 97.4714 795.839 93.8199 793.415 91.1836C791.021 88.5472 787.703 87.229 783.461 87.229C780.582 87.229 778.021 87.8654 775.779 89.1381C773.567 90.3805 771.824 92.1836 770.551 94.5472C769.309 96.9108 768.688 99.7745 768.688 103.138Z" fill="white"/>
<path d="M715.053 145.411C708.235 145.411 702.325 143.911 697.325 140.911C692.325 137.911 688.447 133.714 685.689 128.32C682.962 122.926 681.598 116.623 681.598 109.411C681.598 102.199 682.962 95.8805 685.689 90.4563C688.447 85.032 692.325 80.8199 697.325 77.8199C702.325 74.8199 708.235 73.3199 715.053 73.3199C721.871 73.3199 727.78 74.8199 732.78 77.8199C737.78 80.8199 741.644 85.032 744.371 90.4563C747.129 95.8805 748.507 102.199 748.507 109.411C748.507 116.623 747.129 122.926 744.371 128.32C741.644 133.714 737.78 137.911 732.78 140.911C727.78 143.911 721.871 145.411 715.053 145.411ZM715.144 132.229C718.841 132.229 721.932 131.214 724.416 129.184C726.901 127.123 728.75 124.365 729.962 120.911C731.204 117.456 731.825 113.608 731.825 109.365C731.825 105.093 731.204 101.229 729.962 97.7745C728.75 94.2896 726.901 91.5169 724.416 89.4563C721.932 87.3957 718.841 86.3654 715.144 86.3654C711.356 86.3654 708.204 87.3957 705.689 89.4563C703.204 91.5169 701.341 94.2896 700.098 97.7745C698.886 101.229 698.28 105.093 698.28 109.365C698.28 113.608 698.886 117.456 700.098 120.911C701.341 124.365 703.204 127.123 705.689 129.184C708.204 131.214 711.356 132.229 715.144 132.229Z" fill="white"/>
<path d="M661.463 144.047V74.229H677.918V144.047H661.463ZM669.736 64.3199C667.13 64.3199 664.887 63.4563 663.009 61.729C661.13 59.9714 660.19 57.8654 660.19 55.4108C660.19 52.926 661.13 50.8199 663.009 49.0927C664.887 47.3351 667.13 46.4563 669.736 46.4563C672.372 46.4563 674.615 47.3351 676.463 49.0927C678.342 50.8199 679.281 52.926 679.281 55.4108C679.281 57.8654 678.342 59.9714 676.463 61.729C674.615 63.4563 672.372 64.3199 669.736 64.3199Z" fill="white"/>
<path d="M656.635 92.6836L641.635 94.3199C641.211 92.8048 640.468 91.3805 639.408 90.0472C638.377 88.7139 636.983 87.6381 635.226 86.8199C633.468 86.0017 631.317 85.5927 628.771 85.5927C625.347 85.5927 622.468 86.3351 620.135 87.8199C617.832 89.3048 616.696 91.229 616.726 93.5927C616.696 95.623 617.438 97.2745 618.953 98.5472C620.499 99.8199 623.044 100.865 626.59 101.684L638.499 104.229C645.105 105.653 650.014 107.911 653.226 111.002C656.468 114.093 658.105 118.138 658.135 123.138C658.105 127.532 656.817 131.411 654.271 134.774C651.756 138.108 648.256 140.714 643.771 142.593C639.287 144.471 634.135 145.411 628.317 145.411C619.771 145.411 612.893 143.623 607.68 140.047C602.468 136.441 599.362 131.426 598.362 125.002L614.408 123.456C615.135 126.608 616.68 128.987 619.044 130.593C621.408 132.199 624.483 133.002 628.271 133.002C632.18 133.002 635.317 132.199 637.68 130.593C640.074 128.987 641.271 127.002 641.271 124.638C641.271 122.638 640.499 120.987 638.953 119.684C637.438 118.381 635.074 117.381 631.862 116.684L619.953 114.184C613.256 112.79 608.302 110.441 605.09 107.138C601.877 103.805 600.287 99.5927 600.317 94.5017C600.287 90.1987 601.453 86.4714 603.817 83.3199C606.211 80.1381 609.529 77.6836 613.771 75.9563C618.044 74.1987 622.968 73.3199 628.544 73.3199C636.726 73.3199 643.165 75.0624 647.862 78.5472C652.59 82.0321 655.514 86.7442 656.635 92.6836Z" fill="white"/>
<path d="M550.148 103.138V144.047H533.693V74.229H549.42V86.0927H550.239C551.845 82.1836 554.405 79.0775 557.92 76.7745C561.466 74.4714 565.845 73.3199 571.057 73.3199C575.875 73.3199 580.072 74.3502 583.648 76.4108C587.254 78.4714 590.042 81.4563 592.011 85.3654C594.011 89.2745 594.996 94.0169 594.966 99.5927V144.047H578.511V102.138C578.511 97.4714 577.299 93.8199 574.875 91.1836C572.481 88.5472 569.163 87.229 564.92 87.229C562.042 87.229 559.481 87.8654 557.239 89.1381C555.026 90.3805 553.284 92.1836 552.011 94.5472C550.769 96.9108 550.148 99.7745 550.148 103.138Z" fill="white"/>
<path d="M498.967 145.411C491.967 145.411 485.922 143.956 480.831 141.047C475.77 138.108 471.876 133.956 469.149 128.593C466.422 123.199 465.058 116.85 465.058 109.547C465.058 102.365 466.422 96.0624 469.149 90.6381C471.907 85.1836 475.755 80.9411 480.695 77.9108C485.634 74.8502 491.437 73.3199 498.104 73.3199C502.407 73.3199 506.467 74.0169 510.285 75.4108C514.134 76.7745 517.528 78.8957 520.467 81.7745C523.437 84.6533 525.77 88.3199 527.467 92.7745C529.164 97.1987 530.013 102.471 530.013 108.593V113.638H472.785V102.547H514.24C514.21 99.3957 513.528 96.5927 512.195 94.1381C510.861 91.6533 508.998 89.6987 506.604 88.2745C504.24 86.8502 501.482 86.1381 498.331 86.1381C494.967 86.1381 492.013 86.9563 489.467 88.5927C486.922 90.1987 484.937 92.3199 483.513 94.9563C482.119 97.5624 481.407 100.426 481.376 103.547V113.229C481.376 117.29 482.119 120.774 483.604 123.684C485.088 126.562 487.164 128.774 489.831 130.32C492.498 131.835 495.619 132.593 499.195 132.593C501.589 132.593 503.755 132.259 505.695 131.593C507.634 130.896 509.316 129.881 510.74 128.547C512.164 127.214 513.24 125.562 513.967 123.593L529.331 125.32C528.361 129.381 526.513 132.926 523.785 135.956C521.088 138.956 517.634 141.29 513.422 142.956C509.21 144.593 504.392 145.411 498.967 145.411Z" fill="white"/>
<path d="M465.287 74.229V86.9563H425.15V74.229H465.287ZM435.06 57.5017H451.514V123.047C451.514 125.259 451.847 126.956 452.514 128.138C453.211 129.29 454.12 130.077 455.241 130.502C456.363 130.926 457.605 131.138 458.969 131.138C459.999 131.138 460.938 131.062 461.787 130.911C462.666 130.759 463.332 130.623 463.787 130.502L466.56 143.365C465.681 143.668 464.423 144.002 462.787 144.365C461.181 144.729 459.211 144.941 456.878 145.002C452.756 145.123 449.044 144.502 445.741 143.138C442.438 141.744 439.817 139.593 437.878 136.684C435.969 133.774 435.029 130.138 435.06 125.774V57.5017Z" fill="white"/>
<path d="M382.118 74.229L396.209 100.002L410.527 74.229H427.936L406.89 109.138L428.3 144.047H410.981L396.209 118.911L381.572 144.047H364.118L385.39 109.138L364.663 74.229H382.118Z" fill="white"/>
<path d="M329.267 171.684C323.358 171.684 318.282 170.881 314.04 169.274C309.797 167.699 306.388 165.577 303.812 162.911C301.236 160.244 299.449 157.29 298.449 154.047L313.267 150.456C313.933 151.82 314.903 153.168 316.176 154.502C317.449 155.865 319.161 156.987 321.312 157.865C323.494 158.774 326.237 159.229 329.54 159.229C334.206 159.229 338.07 158.093 341.13 155.82C344.191 153.578 345.721 149.881 345.721 144.729V131.502H344.903C344.055 133.199 342.812 134.941 341.176 136.729C339.57 138.517 337.433 140.017 334.767 141.229C332.13 142.441 328.812 143.047 324.812 143.047C319.449 143.047 314.585 141.79 310.221 139.274C305.888 136.729 302.433 132.941 299.858 127.911C297.312 122.85 296.04 116.517 296.04 108.911C296.04 101.244 297.312 94.7745 299.858 89.5017C302.433 84.1987 305.903 80.1836 310.267 77.4563C314.63 74.6987 319.494 73.3199 324.858 73.3199C328.949 73.3199 332.312 74.0169 334.949 75.4108C337.615 76.7745 339.736 78.426 341.312 80.3654C342.888 82.2745 344.085 84.0775 344.903 85.7745H345.812V74.229H362.04V145.184C362.04 151.153 360.615 156.093 357.767 160.002C354.918 163.911 351.024 166.835 346.085 168.774C341.146 170.714 335.54 171.684 329.267 171.684ZM329.403 130.138C332.888 130.138 335.858 129.29 338.312 127.593C340.767 125.896 342.63 123.456 343.903 120.274C345.176 117.093 345.812 113.274 345.812 108.82C345.812 104.426 345.176 100.578 343.903 97.2745C342.661 93.9714 340.812 91.4108 338.358 89.5927C335.933 87.7442 332.949 86.8199 329.403 86.8199C325.737 86.8199 322.676 87.7745 320.221 89.6836C317.767 91.5927 315.918 94.2139 314.676 97.5472C313.433 100.85 312.812 104.608 312.812 108.82C312.812 113.093 313.433 116.835 314.676 120.047C315.949 123.229 317.812 125.714 320.267 127.502C322.752 129.259 325.797 130.138 329.403 130.138Z" fill="white"/>
<path d="M247.598 103.138V144.047H231.143V74.229H246.87V86.0927H247.689C249.295 82.1836 251.855 79.0775 255.37 76.7745C258.916 74.4714 263.295 73.3199 268.507 73.3199C273.325 73.3199 277.522 74.3502 281.098 76.4108C284.704 78.4714 287.492 81.4563 289.461 85.3654C291.461 89.2745 292.446 94.0169 292.416 99.5927V144.047H275.961V102.138C275.961 97.4714 274.749 93.8199 272.325 91.1836C269.931 88.5472 266.613 87.229 262.37 87.229C259.492 87.229 256.931 87.8654 254.689 89.1381C252.477 90.3805 250.734 92.1836 249.461 94.5472C248.219 96.9108 247.598 99.7745 247.598 103.138Z" fill="white"/>
</svg>
